<?xml version="1.0" encoding="utf-8"?>
<!-- Generator: Adobe Illustrator 22.0.1, SVG Export Plug-In . SVG Version: 6.00 Build 0)  -->
<svg version="1.1" id="Layer_1" xmlns="http://www.w3.org/2000/svg" xmlns:xlink="http://www.w3.org/1999/xlink" x="0px" y="0px"
	 viewBox="0 0 1000 1000" style="enable-background:new 0 0 1000 1000;" xml:space="preserve">
<style type="text/css">
	.st0{filter:url(#Adobe_OpacityMaskFilter);}
	.st1{clip-path:url(#SVGID_3_);}
	.st2{clip-path:url(#SVGID_5_);fill:none;stroke:#FFFFFF;stroke-width:2;stroke-miterlimit:10;}
	.st3{mask:url(#SVGID_1_);}
	.st4{clip-path:url(#SVGID_7_);fill:none;stroke:#FFFFFF;stroke-width:4.2028;stroke-miterlimit:10;}
	.st5{clip-path:url(#SVGID_9_);fill:none;stroke:#FFFFFF;stroke-width:4.4789;stroke-miterlimit:10;}
	.st6{clip-path:url(#SVGID_11_);}
	.st7{clip-path:url(#SVGID_13_);fill:none;stroke:#FFFFFF;stroke-width:2;stroke-miterlimit:10;}
	.st8{clip-path:url(#SVGID_15_);fill:none;stroke:#FFFFFF;stroke-width:5.4706;stroke-miterlimit:10;}
	.st9{clip-path:url(#SVGID_17_);fill:none;stroke:#FFFFFF;stroke-width:2.1012;stroke-miterlimit:10;}
	.st10{fill:none;stroke:#B1EF36;stroke-width:6;stroke-miterlimit:10;}
	.st11{fill:#B1EF36;}
</style>
<defs>
	<filter id="Adobe_OpacityMaskFilter" filterUnits="userSpaceOnUse" x="-143.1" y="-206.9" width="1472.2" height="7513">
		
			<feColorMatrix  type="matrix" values="-1 0 0 0 1  0 -1 0 0 1  0 0 -1 0 1  0 0 0 1 0" color-interpolation-filters="sRGB" result="source"/>
		<feFlood  style="flood-color:white;flood-opacity:1" result="back"/>
		<feBlend  in="source" in2="back" mode="normal"/>
	</filter>
</defs>
<mask maskUnits="userSpaceOnUse" x="-143.1" y="-206.9" width="1472.2" height="7513" id="SVGID_1_">
	<g class="st0">
		<g>
			<defs>
				
					<rect id="SVGID_2_" x="907" y="926.5" transform="matrix(0.766 -0.6428 0.6428 0.766 -415.2767 859.0417)" width="131" height="147"/>
			</defs>
			<clipPath id="SVGID_3_">
				<use xlink:href="#SVGID_2_"  style="overflow:visible;"/>
			</clipPath>
			<g>
				<defs>
					<rect id="SVGID_4_" x="123.3" y="796.7" width="1440" height="7513"/>
				</defs>
				<clipPath id="SVGID_5_" class="st1">
					<use xlink:href="#SVGID_4_"  style="overflow:visible;"/>
				</clipPath>
				<polygon class="st2" points="961.3,1035.4 920.6,1033.9 911.3,973.8 952.5,958.3 955.4,920.8 996.9,933.7 1009.1,978.8 
					1043.2,985.5 1032.8,1032.9 1006.2,1041.1 987.2,1080.7 951.8,1073.6 				"/>
			</g>
		</g>
	</g>
</mask>
<g class="st3">
	<rect width="1000" height="1000"/>
	<g>
		<defs>
			<rect id="SVGID_6_" x="-81.9" y="853.7" width="222.7" height="210.1"/>
		</defs>
		<clipPath id="SVGID_7_">
			<use xlink:href="#SVGID_6_"  style="overflow:visible;"/>
		</clipPath>
		<polygon class="st4" points="-72,923.6 -79,983.3 -3.5,994.2 -3.5,1055.6 57.1,1060.4 124.8,1005.4 137.3,931.5 98.8,886.5 
			3,856.8 -20.9,899.7 		"/>
	</g>
	<g>
		<defs>
			<rect id="SVGID_8_" x="863.8" y="154.8" width="244.1" height="219.5"/>
		</defs>
		<clipPath id="SVGID_9_">
			<use xlink:href="#SVGID_8_"  style="overflow:visible;"/>
		</clipPath>
		<polygon class="st5" points="1018.8,316.2 973.6,366.4 887.6,314.1 911.8,245 867.5,201.3 927.9,162.3 997.9,194.9 1042.6,158.7 
			1091.5,222.5 1073.7,265.1 1103.6,331.7 1057,369.2 		"/>
	</g>
	<g>
		<defs>
			
				<rect id="SVGID_10_" x="672.7" y="-77.1" transform="matrix(0.766 -0.6428 0.6428 0.766 175.037 473.6534)" width="131" height="147"/>
		</defs>
		<clipPath id="SVGID_11_">
			<use xlink:href="#SVGID_10_"  style="overflow:visible;"/>
		</clipPath>
		<g class="st6">
			<defs>
				<rect id="SVGID_12_" x="-110.9" y="-206.9" width="1440" height="7513"/>
			</defs>
			<clipPath id="SVGID_13_">
				<use xlink:href="#SVGID_12_"  style="overflow:visible;"/>
			</clipPath>
			<polygon class="st7" points="727,31.8 686.3,30.2 677,-29.9 718.2,-45.4 721.2,-82.8 762.6,-69.9 774.9,-24.9 808.9,-18.1 
				798.5,29.2 772,37.4 752.9,77 717.5,70 			"/>
		</g>
	</g>
	<g>
		<defs>
			
				<rect id="SVGID_14_" x="-80.6" y="-84.4" transform="matrix(0.6957 -0.7184 0.7184 0.6957 -26.4582 58.7711)" width="273.5" height="289.9"/>
		</defs>
		<clipPath id="SVGID_15_">
			<use xlink:href="#SVGID_14_"  style="overflow:visible;"/>
		</clipPath>
		<polygon class="st8" points="-6.9,-64.2 -67.4,-14.7 -6.8,63.8 -62.4,121.2 -10.1,180.6 103.1,190.5 181.6,132.7 186.5,55.8 
			123.7,-58.7 62.6,-40.3 		"/>
	</g>
	<g>
		<defs>
			<rect id="SVGID_16_" x="354" y="948.5" width="114.5" height="103"/>
		</defs>
		<clipPath id="SVGID_17_">
			<use xlink:href="#SVGID_16_"  style="overflow:visible;"/>
		</clipPath>
		<polygon class="st9" points="426.7,1024.3 405.5,1047.8 365.2,1023.3 376.5,990.9 355.7,970.3 384,952 416.9,967.3 437.9,950.4 
			460.8,980.3 452.4,1000.3 466.5,1031.5 444.6,1049.1 		"/>
	</g>
</g>
<path class="st10" d="M283.9,388.5c-1.8-1.3-1.8-2.8-2.1-4.3c-4.3-18.4-4.7-36.8-1.6-55.3c5.3-31.7,19.5-59.3,40.9-83
	c3.9-4.4,8.3-8.4,12.5-12.5c1.2-1,2.2-2.1,3.8-3.6c-1.5-1.5-2.6-2.7-3.7-3.9c-11.9-12.3-23.9-24.6-35.7-36.8c-1-1-1.9-1.9-2.7-3
	c-1-1.4-0.9-2.9,0.3-4.2c1.1-1.1,2.7-1.4,4.1-0.3c1.2,0.9,2.2,2,3.3,3.1c12,12.2,23.9,24.4,35.8,36.6c1.3,1.3,2.6,2.6,4.1,4.1
	c1.1-0.8,2.1-1.4,3.1-2.1c14-10.5,29.1-19,45.4-25.3c13-5,26.3-8.6,40.1-10.8c19.3-3.2,38.6-3.2,58-0.4c1.1,0.2,2.3,0.2,3.6,0.3
	c0.5-1.7,1.1-3.3,1.6-5c4.7-16.5,9.4-33.1,14.1-49.7c0.4-1.3,0.8-2.6,1.3-3.9c0.8-2,2.2-2.7,3.9-2.2c1.9,0.6,2.7,1.9,2.3,4
	c-0.3,1.5-0.8,2.9-1.2,4.4c-4.5,16.1-9,32.2-13.5,48.3c-0.5,1.6-0.9,3.3-1.4,4.9c1.4,1.4,3.2,1.4,4.7,1.7c17.7,4.3,34.4,11,50,20.5
	c25.2,15.3,44.9,36.1,58.3,62.6c4.1,8,7.1,16.4,9.8,25c0.4,1.1,0.6,2.2,0.9,3.6c-1.1,0.5-1.9,1-2.8,1.4c-1.3,0.4-2.6,0.7-3.9,1
	L283.9,388.5z"/>
<path class="st11" d="M500,257c2.3,8.7,11.4,13.7,20.2,11.5c9.1-2.2,14.4-11.2,12-20.1c-1.6-7.1-9.5-14.9-20.4-11.9
	C501.6,239.2,497.9,249.2,500,257L500,257z"/>
<path class="st11" d="M337.7,298c2.2,8.7,11.1,14,20,11.9c9.1-2.1,14.7-11,12.5-20c-2.3-8.9-11.4-14.6-20.3-12.2
	C339.4,280.5,335.7,290.3,337.7,298L337.7,298z"/>
<path class="st10" d="M276.4,452.6c-0.4-1.8-0.9-3.6-1.5-5.4c-4-12.5-11.7-22-23.9-27.3c-14.8-6.3-31.5-2.1-41.6,10.5
	c-4.9,6.3-7.8,13.4-8.7,21.2c-0.7,5.9,0,11.8,1.5,17.7c12.8,50.3,25.7,100.9,38.5,151.3c0.2,0.9,0.5,2,0.8,3
	c3.8,11.5,10.6,20.7,21.5,26.4c16.5,8.5,35.9,3.4,46.1-11.9c3.2-4.9,5.3-10.3,6.3-15.9c1.2-6.8,0.8-13.5-0.9-20.1
	c-6.5-25.2-12.8-50.4-19.2-75.6L276.4,452.6z"/>
<path class="st10" d="M733.1,336.4c-0.4-1.8-0.9-3.6-1.5-5.4c-4-12.5-11.7-22-23.9-27.3c-14.8-6.3-31.5-2.1-41.6,10.5
	c-4.9,6.3-7.8,13.4-8.7,21.2c-0.7,5.9,0,11.8,1.5,17.7c12.8,50.3,25.7,100.9,38.5,151.3c0.2,0.9,0.5,2,0.8,3
	c3.8,11.5,10.6,20.7,21.5,26.4c16.5,8.5,35.9,3.4,46.1-11.9c3.2-4.9,5.3-10.3,6.3-15.9c1.2-6.8,0.8-13.5-0.9-20.1
	c-6.5-25.2-12.8-50.4-19.2-75.6L733.1,336.4z"/>
<polyline class="st10" points="683.9,451.5 659.8,444.4 489.4,488.9 318.5,531.2 300.9,548.8 "/>
<polyline class="st10" points="238.4,611.4 104.2,745.7 526.2,638.3 528.6,637.7 950.5,530.4 768.7,476.6 "/>
<polygon class="st10" points="793,767.3 574.1,821.7 355.8,878.5 104.2,745.7 526.2,638.3 528.6,637.7 950.5,530.4 "/>
<g>
	<path class="st10" d="M632.2,328.3c-0.3-1.2-0.6-2.4-0.9-3.4c-0.2-0.9-0.7-1.8-1-2.8c-2.5-0.2-4.5,0.7-6.6,1.3l-330.3,84
		c-1.3,0.3-2.7,0.6-4,1c-0.9,0.2-1.7,0.8-2.8,1.4l31,121.7l344-87.5C651.8,405.3,642,366.8,632.2,328.3z"/>
</g>
</svg>
